<svg id="Layer_1" data-name="Layer 1" xmlns="http://www.w3.org/2000/svg" xmlns:xlink="http://www.w3.org/1999/xlink" viewBox="0 0 685.19 126"><defs><style>.cls-1{fill:none;}.cls-2,.cls-4{fill:#3388cb;}.cls-3{fill:#fff;}.cls-4{font-size:49.1px;font-family:Calibri-Bold, Calibri;font-weight:700;}.cls-5{letter-spacing:-0.01em;}.cls-6{letter-spacing:-0.01em;}.cls-7{letter-spacing:0em;}.cls-8{letter-spacing:-0.03em;}.cls-9{letter-spacing:-0.01em;}.cls-10{letter-spacing:-0.08em;}.cls-11{letter-spacing:0em;}.cls-12{fill:#fefefe;}.cls-12,.cls-14,.cls-15,.cls-17,.cls-18{fill-rule:evenodd;}.cls-13{clip-path:url(#clip-path);}.cls-14,.cls-16{fill:#373435;}.cls-15{fill:#00afef;}.cls-17{fill:#fff212;}.cls-18,.cls-19{fill:#b75795;}</style><clipPath id="clip-path"><path class="cls-1" d="M590,22.41h77.2V65.89c0,20.8-17.37,37.81-38.6,37.81h0c-21.23,0-38.6-17-38.6-37.81V22.41Z"/></clipPath></defs><rect class="cls-2" x="17.42" y="21.41" width="83.19" height="83.19" rx="5.42"/><path class="cls-3" d="M100.6,26.54v.7l-21,21v56.32h-12V60.23l-18.1,18.1v26.25H37.81v-33h6.82L60.81,55.39H38.13V41.16H75.06L94.8,21.41h.68a5.12,5.12,0,0,1,5.12,5.12Z"/><text class="cls-4" transform="translate(129.69 54.28)">Ș<tspan class="cls-5" x="23.21" y="0">C</tspan><tspan class="cls-6" x="48.83" y="0">O</tspan><tspan x="81.37" y="0">ALA DO</tspan><tspan class="cls-7" x="236.88" y="0">C</tspan><tspan class="cls-8" x="263.11" y="0">T</tspan><tspan x="286.1" y="0">ORALĂ</tspan><tspan x="35.46" y="47.82">DE INF</tspan><tspan class="cls-9" x="169.42" y="47.82">R</tspan><tspan x="196.58" y="47.82">OM</tspan><tspan class="cls-10" x="272.7" y="47.82">A</tspan><tspan class="cls-11" x="298.62" y="47.82">TICĂ</tspan></text><g id="Layer_1-2" data-name="Layer_1"><g id="_604936456" data-name=" 604936456"><path id="_604929856" data-name=" 604929856" class="cls-12" d="M590,22.41h77.2V65.89c0,20.8-17.37,37.81-38.6,37.81h0c-21.23,0-38.6-17-38.6-37.81V22.41Z"/><g class="cls-13"><path id="_6049312961" data-name=" 6049312961" class="cls-14" d="M616.47,44.81a.8.8,0,0,1,.81.8.82.82,0,0,1-.67.8v.84h.57a.8.8,0,0,1,.8-.72.81.81,0,1,1-.74,1.11h-.63v3h0a13.12,13.12,0,0,0,2,4.06l-1.26-.66c.27.75.58,1.49.91,2.23a7.7,7.7,0,0,1-1.65-1.81,8.7,8.7,0,0,1-.24,2.94,11.82,11.82,0,0,1-.18-3,13.13,13.13,0,0,1-1.68,1.87,10,10,0,0,0,.92-2.53l-1.18.7a9.35,9.35,0,0,0,2.06-3.84v-3h-.69a.82.82,0,0,1-.75.5.81.81,0,0,1,0-1.61.8.8,0,0,1,.8.72h.64V46.4a.8.8,0,0,1,.17-1.59Z"/><path id="_604936792" data-name=" 604936792" class="cls-14" d="M640.78,44.7a.81.81,0,0,1,.13,1.6v.84h.57a.81.81,0,1,1,.8.89.8.8,0,0,1-.74-.49h-.63v3h0a13.35,13.35,0,0,0,2,4.06L641.64,54c.27.74.58,1.48.91,2.22a7.92,7.92,0,0,1-1.65-1.81,8.67,8.67,0,0,1-.24,2.94,12.28,12.28,0,0,1-.18-3,12.55,12.55,0,0,1-1.68,1.87,10,10,0,0,0,.92-2.52l-1.18.69a9.26,9.26,0,0,0,2.06-3.83v-3h-.69a.81.81,0,1,1-.75-1.12.82.82,0,0,1,.81.72h.63v-.85a.8.8,0,0,1,.18-1.59Z"/><path id="_604936360" data-name=" 604936360" class="cls-14" d="M649.27,51.8a.81.81,0,0,1,.81.8.82.82,0,0,1-.68.8v.84H650a.81.81,0,0,1,.81-.72.81.81,0,0,1,0,1.61.81.81,0,0,1-.75-.5h-.63v3h0a13.15,13.15,0,0,0,2,4.06l-1.27-.66c.27.74.59,1.49.92,2.23a8,8,0,0,1-1.66-1.81,9,9,0,0,1-.23,2.94,11.83,11.83,0,0,1-.19-3,13.1,13.1,0,0,1-1.67,1.87,10,10,0,0,0,.91-2.53l-1.17.7a9.42,9.42,0,0,0,2.06-3.84v-3h-.7a.8.8,0,1,1,.06-.39h.64v-.85a.8.8,0,0,1,.17-1.59Z"/><path id="_604935928" data-name=" 604935928" class="cls-14" d="M660.35,40.4a.81.81,0,0,1,.13,1.6v.84h.57a.81.81,0,1,1,.8.89.79.79,0,0,1-.74-.5h-.63v3h0a13.35,13.35,0,0,0,2,4.06l-1.26-.65c.27.74.58,1.48.91,2.22a7.92,7.92,0,0,1-1.65-1.81,8.67,8.67,0,0,1-.24,2.94,12.28,12.28,0,0,1-.18-3,12.55,12.55,0,0,1-1.68,1.87,10,10,0,0,0,.92-2.53l-1.18.7a9.24,9.24,0,0,0,2.06-3.84v-3h-.69a.81.81,0,1,1-.75-1.11.82.82,0,0,1,.81.72h.63V42a.8.8,0,0,1,.18-1.59Z"/><path id="_604935400" data-name=" 604935400" class="cls-14" d="M639.59,63.73a.81.81,0,0,1,.81.81.8.8,0,0,1-.67.79v.85h.57a.8.8,0,0,1,.8-.73.81.81,0,1,1-.75,1.12h-.62v3h0a13,13,0,0,0,2,4.06L640.45,73c.28.74.59,1.48.92,2.22a7.88,7.88,0,0,1-1.66-1.8,8.74,8.74,0,0,1-.23,2.94,11.42,11.42,0,0,1-.18-3,13.3,13.3,0,0,1-1.68,1.88,10.25,10.25,0,0,0,.92-2.53l-1.18.7a9.48,9.48,0,0,0,2.06-3.84v-3h-.7a.8.8,0,0,1-.74.49.81.81,0,1,1,.8-.88h.64v-.85a.81.81,0,0,1-.63-.79.8.8,0,0,1,.8-.81Z"/><path id="_604935280" data-name=" 604935280" class="cls-14" d="M617.44,63.84a.8.8,0,0,1,.13,1.6v.84h.58a.8.8,0,1,1,.8.89.81.81,0,0,1-.75-.49h-.63v3h0a13.37,13.37,0,0,0,2,4.06l-1.27-.65c.27.74.59,1.48.92,2.22a8,8,0,0,1-1.66-1.81,9,9,0,0,1-.23,2.94,11.34,11.34,0,0,1-.18-3,13.76,13.76,0,0,1-1.68,1.87,10,10,0,0,0,.92-2.52l-1.18.69a9.38,9.38,0,0,0,2.06-3.83v-3h-.7a.8.8,0,0,1-.74.49.81.81,0,1,1,.8-.89h.64v-.85a.8.8,0,0,1,.17-1.59Z"/><path id="_604925608" data-name=" 604925608" class="cls-14" d="M628.52,72.44a.81.81,0,0,1,.13,1.6v.85h.57a.81.81,0,1,1,.8.88.8.8,0,0,1-.74-.49h-.63v3h0a13.24,13.24,0,0,0,2,4.06l-1.26-.65c.27.74.58,1.48.91,2.22a7.86,7.86,0,0,1-1.65-1.8,8.64,8.64,0,0,1-.24,2.93,12.25,12.25,0,0,1-.18-3A12.69,12.69,0,0,1,626.55,84a10.65,10.65,0,0,0,.91-2.53l-1.18.69a9.15,9.15,0,0,0,2.06-3.83v-3h-.69a.81.81,0,1,1-.75-1.12.81.81,0,0,1,.81.73h.63V74a.8.8,0,0,1,.18-1.59Z"/><path id="_604913488" data-name=" 604913488" class="cls-14" d="M607.76,51.69a.81.81,0,0,1,.14,1.6v.84h.57a.81.81,0,0,1,1.61.08.81.81,0,0,1-.81.81.79.79,0,0,1-.74-.5h-.63v3h0a13.12,13.12,0,0,0,2,4.06L608.63,61c.27.74.58,1.48.91,2.22a7.7,7.7,0,0,1-1.65-1.81,8.67,8.67,0,0,1-.24,2.94,11.79,11.79,0,0,1-.18-3,13.13,13.13,0,0,1-1.68,1.87,10,10,0,0,0,.92-2.53l-1.18.7a9.38,9.38,0,0,0,2.06-3.83v-3h-.69a.81.81,0,1,1,.05-.39h.64v-.85a.8.8,0,0,1,.17-1.59Z"/><path id="_604913968" data-name=" 604913968" class="cls-14" d="M596.9,40.29a.81.81,0,0,1,.81.81.8.8,0,0,1-.67.79v.84h.57a.8.8,0,0,1,.8-.72.81.81,0,1,1,0,1.61.8.8,0,0,1-.74-.49H597v3h0a13,13,0,0,0,2,4.06l-1.26-.65c.27.74.58,1.48.91,2.22A7.84,7.84,0,0,1,597,50a8.64,8.64,0,0,1-.24,2.93,11.77,11.77,0,0,1-.18-3,12.12,12.12,0,0,1-1.68,1.87,10,10,0,0,0,.92-2.52l-1.18.69a9.38,9.38,0,0,0,2.06-3.83v-3H596a.81.81,0,0,1-.75.49.81.81,0,1,1,.8-.89h.64v-.85a.8.8,0,0,1,.17-1.59Z"/><path id="_604905136" data-name=" 604905136" class="cls-14" d="M605.4,34.27a.8.8,0,0,1,.13,1.6v.84h.57a.81.81,0,1,1,.8.89.79.79,0,0,1-.74-.5h-.63v3h0a13.35,13.35,0,0,0,2,4.06l-1.26-.65c.27.74.58,1.48.92,2.22A8,8,0,0,1,605.52,44a8.67,8.67,0,0,1-.24,2.94,12.28,12.28,0,0,1-.18-3,13.1,13.1,0,0,1-1.67,1.87,10.42,10.42,0,0,0,.91-2.52l-1.17.69a9.38,9.38,0,0,0,2.06-3.83v-3h-.7a.81.81,0,1,1-.74-1.12.81.81,0,0,1,.8.72h.64v-.85a.8.8,0,0,1,.17-1.59Z"/><path id="_604917304" data-name=" 604917304" class="cls-14" d="M615.08,28.14a.81.81,0,0,1,.13,1.6v.84h.57a.81.81,0,1,1,.8.89.8.8,0,0,1-.74-.49h-.63v3h0a13.35,13.35,0,0,0,2,4.06l-1.26-.65c.27.74.58,1.48.91,2.22a8.07,8.07,0,0,1-1.65-1.8,8.64,8.64,0,0,1-.24,2.93,12.25,12.25,0,0,1-.18-3,12.57,12.57,0,0,1-1.67,1.87,10.42,10.42,0,0,0,.91-2.52l-1.18.69A9.15,9.15,0,0,0,614.9,34V31h-.69a.81.81,0,1,1-.75-1.12.82.82,0,0,1,.81.72h.63v-.85a.8.8,0,0,1,.18-1.59Z"/><path id="_604927120" data-name=" 604927120" class="cls-14" d="M651.64,34.48a.81.81,0,0,1,.13,1.61v.84h.57a.82.82,0,1,1,.06.39h-.63v3h0a13.4,13.4,0,0,0,2,4.07l-1.26-.66c.27.74.58,1.48.91,2.22a7.86,7.86,0,0,1-1.65-1.8,8.72,8.72,0,0,1-.24,2.94,12.36,12.36,0,0,1-.18-3A12.17,12.17,0,0,1,649.66,46a10,10,0,0,0,.92-2.53l-1.18.7a9.3,9.3,0,0,0,2.06-3.84v-3h-.69a.81.81,0,1,1,.06-.39h.63v-.85a.81.81,0,0,1,.18-1.6Z"/><path id="_604909672" data-name=" 604909672" class="cls-14" d="M642.17,27.92a.81.81,0,0,1,.14,1.61v.84h.57a.8.8,0,0,1,.8-.73.81.81,0,1,1-.75,1.12h-.62v3h0a13.17,13.17,0,0,0,2,4.07L643,37.2c.27.74.58,1.48.91,2.23a8.16,8.16,0,0,1-1.66-1.81,8.49,8.49,0,0,1-.23,2.94,11.42,11.42,0,0,1-.18-3,12.71,12.71,0,0,1-1.68,1.88,10,10,0,0,0,.92-2.53l-1.18.7A9.42,9.42,0,0,0,642,33.8v-3h-.69a.82.82,0,0,1-.75.5.81.81,0,0,1,0-1.62.8.8,0,0,1,.8.73H642v-.85a.81.81,0,0,1,.17-1.6Z"/><path id="_604909528" data-name=" 604909528" class="cls-14" d="M662.17,24.81a.8.8,0,0,1,.81.8.82.82,0,0,1-.67.8v.84h.57a.8.8,0,0,1,.8-.72.81.81,0,1,1-.74,1.11h-.63v3h0a13.12,13.12,0,0,0,2,4.06L663,34.08c.27.74.58,1.49.91,2.23a8,8,0,0,1-1.66-1.81,8.47,8.47,0,0,1-.23,2.94,11.37,11.37,0,0,1-.18-3,13.13,13.13,0,0,1-1.68,1.87,10,10,0,0,0,.92-2.53l-1.18.7A9.42,9.42,0,0,0,662,30.68v-3h-.69a.82.82,0,0,1-.75.5.81.81,0,1,1,0-1.61.8.8,0,0,1,.8.72H662V26.4a.8.8,0,0,1,.17-1.59Z"/><path id="_604904512" data-name=" 604904512" class="cls-14" d="M654.43,16.85a.8.8,0,0,1,.13,1.6v.84h.58a.8.8,0,1,1,.8.89.81.81,0,0,1-.75-.49h-.63v3h0a13.15,13.15,0,0,0,2,4.06l-1.27-.65c.27.74.59,1.48.92,2.22a8.1,8.1,0,0,1-1.66-1.8,8.92,8.92,0,0,1-.23,2.93,11.77,11.77,0,0,1-.19-3,13.1,13.1,0,0,1-1.67,1.87,10.43,10.43,0,0,0,.92-2.52l-1.18.69a9.38,9.38,0,0,0,2.06-3.83v-3h-.7a.8.8,0,1,1,.06-.4h.64v-.85a.8.8,0,0,1,.17-1.59Z"/><path id="_604924024" data-name=" 604924024" class="cls-14" d="M602.93,16.85a.81.81,0,0,1,.13,1.6v.84h.57a.81.81,0,1,1,.8.89.8.8,0,0,1-.74-.49h-.63v3h0a13.35,13.35,0,0,0,2,4.06l-1.26-.65c.27.74.58,1.48.91,2.22a8.07,8.07,0,0,1-1.65-1.8,8.64,8.64,0,0,1-.24,2.93,12.25,12.25,0,0,1-.18-3A12.55,12.55,0,0,1,601,28.39a10,10,0,0,0,.92-2.52l-1.18.69a9.26,9.26,0,0,0,2.06-3.83v-3h-.69a.81.81,0,1,1-.75-1.12.82.82,0,0,1,.81.72h.63v-.85a.8.8,0,0,1,.18-1.59Z"/><path id="_604916344" data-name=" 604916344" class="cls-14" d="M595.08,24.48a.81.81,0,0,1,.13,1.61v.84h.57a.82.82,0,1,1,.06.39h-.63v3h0a13.4,13.4,0,0,0,2,4.07l-1.26-.66c.27.74.58,1.48.91,2.22a7.86,7.86,0,0,1-1.65-1.8,8.72,8.72,0,0,1-.24,2.94,12.36,12.36,0,0,1-.18-3A12.69,12.69,0,0,1,593.11,36,10.34,10.34,0,0,0,594,33.5l-1.18.7a9.19,9.19,0,0,0,2.06-3.84v-3h-.69a.81.81,0,1,1,.06-.39h.63v-.85a.81.81,0,0,1,.18-1.6Z"/><path id="_604926376" data-name=" 604926376" class="cls-14" d="M638.84,79.65a.81.81,0,0,1,.81.8.82.82,0,0,1-.68.8v.84h.57a.81.81,0,0,1,.81-.72.81.81,0,0,1,0,1.61.81.81,0,0,1-.75-.5H639v3h0a13.15,13.15,0,0,0,2,4.06l-1.27-.66c.27.74.59,1.49.92,2.23A8,8,0,0,1,639,89.34a9,9,0,0,1-.23,2.94,11.83,11.83,0,0,1-.19-3,13.1,13.1,0,0,1-1.67,1.87,10,10,0,0,0,.91-2.53l-1.17.7a9.42,9.42,0,0,0,2.06-3.84v-3H638a.8.8,0,1,1,.06-.39h.64v-.85a.8.8,0,0,1,.17-1.59Z"/><path id="_604922560" data-name=" 604922560" class="cls-14" d="M639,96.63a.81.81,0,0,1,.13,1.61v.84h.57a.82.82,0,1,1,.06.39h-.63v3h0a13.46,13.46,0,0,0,2,4.06l-1.26-.66c.27.74.58,1.48.91,2.23a7.92,7.92,0,0,1-1.65-1.81,8.72,8.72,0,0,1-.24,2.94,12.31,12.31,0,0,1-.18-3,13.1,13.1,0,0,1-1.67,1.87,10.34,10.34,0,0,0,.91-2.53l-1.17.7a9.29,9.29,0,0,0,2-3.84v-3h-.69a.8.8,0,1,1,.06-.39h.63v-.85a.81.81,0,0,1,.18-1.6Z"/><path id="_604918216" data-name=" 604918216" class="cls-14" d="M618.09,79.54a.81.81,0,0,1,.13,1.6V82h.57a.81.81,0,1,1,.8.89.79.79,0,0,1-.74-.5h-.63v3h0a13.35,13.35,0,0,0,2,4.06L619,88.82c.27.74.58,1.48.91,2.22a7.92,7.92,0,0,1-1.65-1.81,8.67,8.67,0,0,1-.24,2.94,12.28,12.28,0,0,1-.18-3,13.1,13.1,0,0,1-1.67,1.87,10.34,10.34,0,0,0,.91-2.53l-1.18.7a9.13,9.13,0,0,0,2.06-3.84v-3h-.69a.81.81,0,1,1-.75-1.11.81.81,0,0,1,.81.72h.63v-.85a.8.8,0,0,1,.18-1.59Z"/><path id="_604922248" data-name=" 604922248" class="cls-14" d="M618.09,96.42a.81.81,0,0,1,.13,1.6v.84h.57a.81.81,0,1,1,.8.89.8.8,0,0,1-.74-.49h-.63v3h0a13.35,13.35,0,0,0,2,4.06L619,105.7c.27.74.58,1.48.91,2.22a8.07,8.07,0,0,1-1.65-1.8,8.64,8.64,0,0,1-.24,2.93,12.25,12.25,0,0,1-.18-3,12.57,12.57,0,0,1-1.67,1.87,10.42,10.42,0,0,0,.91-2.52l-1.18.69a9.15,9.15,0,0,0,2.06-3.83v-3h-.69a.81.81,0,1,1-.75-1.12.81.81,0,0,1,.81.72h.63V98a.8.8,0,0,1,.18-1.59Z"/><path id="_604911856" data-name=" 604911856" class="cls-14" d="M628.52,89.11a.81.81,0,0,1,.13,1.6v.84h.57a.81.81,0,1,1,.8.89.79.79,0,0,1-.74-.5h-.63v3h0a13.35,13.35,0,0,0,2,4.06l-1.26-.65c.27.74.58,1.48.91,2.22a7.92,7.92,0,0,1-1.65-1.81,8.67,8.67,0,0,1-.24,2.94,12.28,12.28,0,0,1-.18-3,13.1,13.1,0,0,1-1.67,1.87,10.34,10.34,0,0,0,.91-2.53l-1.18.7A9.13,9.13,0,0,0,628.34,95v-3h-.69a.81.81,0,1,1-.75-1.11.81.81,0,0,1,.81.72h.63V90.7a.8.8,0,0,1,.18-1.59Z"/><polygon id="_604913920" data-name=" 604913920" class="cls-15" points="600.66 22.34 656.48 22.34 628.57 50.26 600.66 22.34"/><polygon id="_604918744" data-name=" 604918744" class="cls-15" points="586.18 34.17 619.33 67.53 619.33 107.77 587.42 107.77 586.18 34.17"/><polygon id="_604906672" data-name=" 604906672" class="cls-15" points="670.63 33.7 637.48 67.06 637.48 107.3 669.38 107.3 670.63 33.7"/></g><path class="cls-1" d="M590,22.41h77.2V65.89c0,20.8-17.37,37.81-38.6,37.81h0c-21.23,0-38.6-17-38.6-37.81V22.41Z"/><path id="_604908400" data-name=" 604908400" class="cls-16" d="M590,21.82h77.8V65.89A37.89,37.89,0,0,1,656.25,93a39.6,39.6,0,0,1-55.36,0,37.89,37.89,0,0,1-11.52-27.13V21.82ZM666.58,23h-76V65.89a36.68,36.68,0,0,0,11.16,26.28,38.41,38.41,0,0,0,53.69,0,36.72,36.72,0,0,0,11.16-26.28V23Z"/><path id="_604906072" data-name=" 604906072" class="cls-17" d="M626.6,26.93l2.47,5.49L634,28.9l-3.51,4.88,5.48,2.47-6-.6.6,6-2.47-5.48-4.88,3.51,3.52-4.88-5.49-2.47,6,.61-.61-6Zm3.94,0-.6,6,6-.61-5.48,2.47L634,39.66l-4.88-3.51-2.47,5.48.61-6-6,.6,5.49-2.47-3.52-4.88,4.88,3.52,2.47-5.49Z"/><path id="_604912168" data-name=" 604912168" class="cls-16" d="M626.7,26.89l1.87,4.16,1.88-4.16.2.05-.46,4.54,3.7-2.66L634,29l-2.67,3.71,4.54-.46.05.2-4.16,1.87L636,36.16l-.05.2-4.54-.46L634,39.6l-.15.15-3.7-2.67.46,4.54-.21.06-1.87-4.17-1.87,4.17-.2-.06.46-4.54-3.71,2.67-.14-.15,2.66-3.7-4.54.46-.05-.2,4.16-1.88-4.16-1.87.05-.2,4.54.46L623.11,29l.14-.14L627,31.48l-.46-4.54.2-.05Zm2,4.42.42.95.85-.61.41-4.08-1.68,3.74Zm.29,1.15-.41-.9-.4.9-.06.12-.1-.08-.8-.57.1,1V33h-.12l-1-.1.57.8.08.11-.12.05-.9.4.9.41.12.05-.08.1-.57.8,1-.1h.12v.13l-.1,1,.8-.58.11-.07,0,.11.4.9.41-.9,0-.11.1.07.8.58-.1-1v-.13H630l1,.1-.58-.8-.07-.1.11-.05.9-.41-.9-.4-.11-.05.07-.11.58-.8-1,.1h-.13v-.12l.1-1-.8.57-.1.08,0-.12Zm-.52-1.15-1.69-3.74.41,4.08.85.61.43-.95Zm5-1.95-3.33,2.4-.11,1,1-.1Zm-2.28,3.53-.61.85.95.43,3.74-1.69-4.08.41Zm4.08,3.19-3.74-1.68-.95.43.61.84,4.08.41Zm-4.2-.21-1-.1.11,1,3.33,2.4-2.4-3.33ZM630.37,41,630,36.92l-.85-.61-.42.95L630.37,41Zm-1.91-3.74-.43-.95-.85.61L626.77,41l1.69-3.74Zm-4.81,1.94L627,36.8l.11-1-1,.1-2.4,3.33Zm2.29-3.53.61-.84-.95-.43-3.75,1.68,4.09-.41Zm-4.09-3.19,3.75,1.69.95-.43-.61-.85-4.09-.41Zm4.2.22,1,.1-.11-1-3.33-2.4,2.4,3.34Z"/><polygon id="_604928104" data-name=" 604928104" class="cls-17" points="623.62 25.71 628.57 32.2 633.52 25.71 630.38 33.24 638.47 34.28 630.38 35.33 633.52 42.86 628.57 36.37 623.62 42.86 626.76 35.33 618.67 34.28 626.76 33.24 623.62 25.71"/><path id="_604928824" data-name=" 604928824" class="cls-16" d="M623.7,25.64,628.57,32l4.87-6.38.18.11-3.09,7.4,8,1v.21l-8,1,3.09,7.41-.18.1-4.87-6.38-4.87,6.38-.18-.1,3.09-7.41-8-1v-.21l8-1-3.09-7.4.18-.11Zm4.79,6.62L624,26.42l2.83,6.78,0,.13h-.13l-7.29.94,7.29.94.13,0,0,.13L624,42.15l4.46-5.84.08-.11.09.11,4.45,5.84-2.83-6.78,0-.13.14,0,7.28-.94-7.28-.94h-.14l0-.13,2.83-6.78-4.45,5.84-.09.11-.08-.11Z"/><polygon id="_604928536" data-name=" 604928536" class="cls-17" points="628.57 24.89 630.42 31.07 636.71 29.59 632.28 34.28 636.71 38.98 630.42 37.49 628.57 43.68 626.72 37.49 620.44 38.98 624.86 34.28 620.44 29.59 626.72 31.07 628.57 24.89"/><path id="_604929352" data-name=" 604929352" class="cls-16" d="M628.67,24.86,630.5,31l6.18-1.47.1.18-4.36,4.62,4.36,4.63-.1.17-6.18-1.46-1.83,6.09h-.2l-1.82-6.09-6.19,1.46-.1-.17,4.36-4.63-4.36-4.62.1-.18L626.65,31l1.82-6.09Zm1.65,6.24-1.75-5.84-1.75,5.84,0,.1-.1,0-5.94-1.4,4.19,4.44.07.07-.07.07-4.19,4.45,5.94-1.41.1,0,0,.09,1.75,5.85,1.75-5.85,0-.09.1,0,5.94,1.41-4.19-4.45-.07-.07.07-.07,4.19-4.44-5.94,1.4-.1,0Z"/><path id="_604928248" data-name=" 604928248" class="cls-17" d="M649.48,67.14,652,72.62l4.88-3.51L653.31,74l5.49,2.47-6-.61.61,6L651,76.35l-4.88,3.52L649.58,75l-5.48-2.47,6,.6Zm3.94,0-.61,6,6-.6L653.31,75l3.52,4.88L652,76.35l-2.47,5.49.6-6-6,.61L649.58,74l-3.51-4.88L651,72.62l2.47-5.48Z"/><path id="_604929184" data-name=" 604929184" class="cls-16" d="M649.57,67.09l1.88,4.17,1.87-4.17.2.06-.46,4.54,3.7-2.67.15.15-2.67,3.7,4.55-.46.05.2-4.16,1.88,4.16,1.87-.05.2-4.55-.46,2.67,3.71-.14.14-3.71-2.67.46,4.55-.2,0-1.87-4.16-1.88,4.16-.2,0,.46-4.55L646.13,80l-.15-.14,2.67-3.71-4.54.46-.06-.2,4.16-1.87-4.16-1.88.06-.2,4.54.46L646,69.17l.15-.15,3.7,2.67-.46-4.54.2-.06Zm2,4.42.43.95.84-.61.42-4.08-1.69,3.74Zm.29,1.15-.4-.89-.41.89,0,.12-.1-.07-.8-.58.1,1v.13h-.13l-1-.1.58.8.07.1-.12,0-.89.41.89.4.12,0-.07.11-.58.8,1-.1.13,0v.13l-.1,1,.8-.57.1-.08,0,.12.41.9.4-.9,0-.12.11.08.8.57-.1-1,0-.13.13,0,1,.1-.57-.8-.08-.11.12,0,.9-.4-.9-.41-.12,0,.08-.1.57-.8-1,.1h-.13l0-.13.1-1-.8.58-.11.07,0-.12Zm-.52-1.15-1.68-3.74.41,4.08.84.61.43-.95Zm5-1.94L653,72l-.1,1,1-.1Zm-2.28,3.53-.61.84.95.43,3.74-1.68-4.08.41Zm4.08,3.19-3.74-1.69-.95.43.61.84,4.08.42ZM654,76.07l-1-.1.1,1,3.33,2.39L654,76.07Zm-.72,5.13-.42-4.08-.84-.61-.43.95,1.69,3.74Zm-1.92-3.74-.43-.95-.84.61-.41,4.08,1.68-3.74Zm-4.8,1.94L649.86,77l.1-1-1,.1Zm2.28-3.53.61-.84-.95-.43-3.74,1.69,4.08-.42Zm-4.08-3.18,3.74,1.68.95-.43-.61-.84-4.08-.41Zm4.2.21,1,.1-.1-1-3.33-2.4,2.4,3.33Z"/><polygon id="_604928680" data-name=" 604928680" class="cls-17" points="646.5 65.91 651.45 72.4 656.4 65.91 653.25 73.44 661.35 74.49 653.25 75.53 656.4 83.06 651.45 76.58 646.5 83.06 649.64 75.53 641.54 74.49 649.64 73.44 646.5 65.91"/><path id="_604929232" data-name=" 604929232" class="cls-16" d="M646.58,65.85l4.87,6.38,4.86-6.38.18.1-3.09,7.41,8,1v.21l-8,1,3.09,7.4-.18.1-4.86-6.37-4.87,6.37-.18-.1,3.09-7.4-8-1v-.21l8-1L646.4,66l.18-.1Zm4.78,6.61-4.45-5.84,2.82,6.78.06.13-.14,0-7.28.94,7.28.94h.14l-.06.13-2.82,6.78,4.45-5.84.09-.11.08.11L656,82.35l-2.83-6.78-.06-.13h.14l7.29-.94-7.29-.94-.14,0,.06-.13L656,66.62l-4.46,5.84-.08.11-.09-.11Z"/><polygon id="_604929016" data-name=" 604929016" class="cls-17" points="651.45 65.09 653.3 71.28 659.58 69.79 655.15 74.49 659.58 79.18 653.3 77.7 651.45 83.88 649.59 77.7 643.31 79.18 647.74 74.49 643.31 69.79 649.59 71.28 651.45 65.09"/><path id="_604928392" data-name=" 604928392" class="cls-16" d="M651.55,65.06l1.82,6.09,6.19-1.46.1.17-4.36,4.63,4.36,4.62-.1.18-6.19-1.47-1.82,6.09h-.2l-1.83-6.09-6.19,1.47-.1-.18,4.36-4.62-4.36-4.63.1-.17,6.19,1.46,1.83-6.09Zm1.65,6.25-1.75-5.85-1.76,5.85,0,.09-.09,0L643.63,70l4.19,4.44.06.08-.06.07L643.63,79l5.94-1.41.09,0,0,.1,1.76,5.84,1.75-5.84,0-.1.09,0L659.26,79l-4.18-4.44-.07-.07.07-.08L659.26,70l-5.94,1.41-.09,0Z"/><path id="_604930024" data-name=" 604930024" class="cls-17" d="M603.38,67.14l2.47,5.48,4.88-3.51L607.22,74l5.48,2.47-6-.61.6,6-2.47-5.49L600,79.87,603.49,75,598,72.52l6,.6-.6-6Zm3.94,0-.6,6,6-.6L607.22,75l3.51,4.88-4.88-3.52-2.47,5.49.6-6-6,.61L603.49,74,600,69.11l4.88,3.51,2.47-5.48Z"/><path id="_604928632" data-name=" 604928632" class="cls-16" d="M603.48,67.09l1.87,4.17,1.87-4.17.2.06L607,71.69l3.7-2.67.15.15-2.67,3.7,4.54-.46,0,.2-4.16,1.88,4.16,1.87,0,.2-4.54-.46,2.67,3.71-.15.14L607,77.28l.45,4.55-.2,0-1.87-4.16-1.87,4.16-.2,0,.45-4.55L600,80l-.15-.14,2.67-3.71-4.54.46,0-.2,4.16-1.87L598,72.61l0-.2,4.54.46-2.67-3.7L600,69l3.7,2.67-.45-4.54.2-.06Zm2,4.42.42.95.85-.61.41-4.08-1.68,3.74Zm.28,1.15-.4-.89-.4.89-.06.12-.1-.07-.8-.58.1,1v.13H604l-1-.1.57.8.08.1-.12,0-.9.41.9.4.12,0-.08.11-.57.8,1-.1.13,0v.13l-.1,1,.8-.57.1-.08.06.12.4.9.4-.9.06-.12.1.08.8.57-.1-1v-.13l.13,0,1,.1-.58-.8-.07-.11.11,0,.9-.4-.9-.41-.11,0,.07-.1.58-.8-1,.1h-.13v-.13l.1-1-.8.58-.1.07-.06-.12Zm-.51-1.15-1.69-3.74.41,4.08.85.61.43-.95Zm5-1.94L606.94,72l-.11,1,1-.1,2.4-3.33ZM608,73.1l-.6.84,1,.43,3.74-1.68L608,73.1Zm4.09,3.19-3.74-1.69-1,.43.6.84,4.09.42Zm-4.2-.22-1-.1.11,1,3.33,2.39-2.4-3.33Zm-.72,5.13-.41-4.08-.85-.61-.42.95,1.68,3.74Zm-1.92-3.74-.42-.95-.85.61-.41,4.08,1.68-3.74Zm-4.8,1.94L603.76,77l.11-1-1,.1Zm2.29-3.53.6-.84-.94-.43-3.75,1.69,4.09-.42Zm-4.09-3.18,3.75,1.68.94-.43-.6-.84-4.09-.41Zm4.2.21,1,.1-.11-1-3.33-2.4,2.4,3.33Z"/><polygon id="_604929928" data-name=" 604929928" class="cls-17" points="600.4 65.91 605.35 72.4 610.3 65.91 607.16 73.44 615.25 74.49 607.16 75.53 610.3 83.06 605.35 76.58 600.4 83.06 603.54 75.53 595.45 74.49 603.54 73.44 600.4 65.91"/><path id="_604930576" data-name=" 604930576" class="cls-16" d="M600.48,65.85l4.87,6.38,4.87-6.38.18.1-3.09,7.41,8,1v.21l-8,1L610.4,83l-.18.1-4.87-6.37-4.87,6.37-.18-.1,3.09-7.4-7.95-1v-.21l7.95-1L600.3,66Zm4.79,6.61-4.46-5.84,2.83,6.78.05.13-.13,0-7.29.94,7.29.94h.13l-.05.13-2.83,6.78,4.46-5.84.08-.11.08.11,4.46,5.84-2.83-6.78,0-.13h.14l7.28-.94-7.28-.94-.14,0,0-.13,2.83-6.78-4.46,5.84-.08.11Z"/><polygon id="_604930552" data-name=" 604930552" class="cls-17" points="605.35 65.09 607.2 71.28 613.49 69.79 609.06 74.49 613.49 79.18 607.2 77.7 605.35 83.88 603.5 77.7 597.22 79.18 601.64 74.49 597.22 69.79 603.5 71.28 605.35 65.09"/><path id="_604931200" data-name=" 604931200" class="cls-16" d="M605.45,65.06l1.83,6.09,6.18-1.46.1.17-4.36,4.63,4.36,4.62-.1.18-6.18-1.47-1.83,6.09h-.2l-1.83-6.09-6.18,1.47-.1-.18,4.36-4.62-4.36-4.63.1-.17,6.18,1.46,1.83-6.09Zm1.65,6.25-1.75-5.85-1.75,5.85,0,.09-.1,0L597.53,70l4.19,4.44.07.08-.07.07L597.53,79l5.94-1.41.1,0,0,.1,1.75,5.84,1.75-5.84,0-.1.1,0L613.17,79,609,74.56l-.07-.07.07-.08L613.17,70l-5.94,1.41-.1,0Z"/><polygon id="_604930792" data-name=" 604930792" class="cls-18" points="637.82 52.78 637.91 52.2 636.01 49.85 619.71 49.85 619.71 68.95 637.82 68.95 637.82 52.78"/><path id="_604931776" data-name=" 604931776" class="cls-16" d="M638,52.79l.08-.57,0-.07-.05-.07-1.9-2.34,0-.07H619.53V69.13H638V52.79Zm-.28-.54-.08.51v16H619.89V50h16l1.79,2.22Z"/><path id="_604931464" data-name=" 604931464" class="cls-17" d="M622.91,54.07a5.34,5.34,0,0,0-2.23-3.38V69.05c1.3.2,2,1.31,2.32,2.93l-.09-17.91Z"/><path id="_604931368" data-name=" 604931368" class="cls-16" d="M623.06,54a4.79,4.79,0,0,0-.78-1.93,8,8,0,0,0-1.5-1.54l-.25-.2V69.18l.13,0a2.1,2.1,0,0,1,1.42.87,5.08,5.08,0,0,1,.78,1.94l.29,0-.09-17.92v0Zm-1-1.76a4.47,4.47,0,0,1,.73,1.8l.09,16.81a4.5,4.5,0,0,0-.53-1,2.44,2.44,0,0,0-1.49-1V51a7.05,7.05,0,0,1,1.2,1.27Z"/><rect id="_604907296" data-name=" 604907296" class="cls-19" x="623.5" y="67.41" width="12.04" height="3.81"/><path id="_604931272" data-name=" 604931272" class="cls-17" d="M636.91,54.33H623.09a6,6,0,0,0-2.37-3.74l13.91-.09q3.45,1,2.28,3.83Z"/><path id="_604932064" data-name=" 604932064" class="cls-16" d="M636.81,54.18H623.2a7.59,7.59,0,0,0-.9-2.16,5.38,5.38,0,0,0-1.13-1.28l13.44-.09c.24.07.47.16.69.24a3,3,0,0,1,1.53,1.21,2.21,2.21,0,0,1,.1,1.73c0,.11-.08.23-.12.35Zm-13.72.3H637l0-.09a3.06,3.06,0,0,0,.17-.48,2.44,2.44,0,0,0-.12-1.95,3.22,3.22,0,0,0-1.68-1.34,5.78,5.78,0,0,0-.74-.26h0l-13.91.09-.08.27a5.21,5.21,0,0,1,1.41,1.47,7.54,7.54,0,0,1,.89,2.19l0,.11Z"/><path id="_604932352" data-name=" 604932352" class="cls-18" d="M637.85,53.74h-4.32a.31.31,0,0,0-.31.31v1.67a.31.31,0,0,0,.31.31h4.32a.31.31,0,0,0,.3-.31V54.05A.31.31,0,0,0,637.85,53.74Zm0,5.55h-4.32a.31.31,0,0,0-.31.31v1.67a.31.31,0,0,0,.31.31h4.32a.31.31,0,0,0,.3-.31V59.6A.31.31,0,0,0,637.85,59.29Zm0,5.33h-4.32a.31.31,0,0,0-.31.31V66.6a.31.31,0,0,0,.31.31h4.32a.31.31,0,0,0,.3-.31V64.93A.31.31,0,0,0,637.85,64.62Zm0,5.17h-4.32a.3.3,0,0,0-.31.3v1.68a.31.31,0,0,0,.31.3h4.32a.31.31,0,0,0,.3-.3V70.09A.3.3,0,0,0,637.85,69.79Zm-.07-2.92H633.6v2.91h4.18Zm0-5.17H633.6v2.92h4.18Zm0-5.63H633.6v3.22h4.18Zm-4.47-1.83H623V71.81h10.28M625,69a1,1,0,1,0,1,1A.95.95,0,0,0,625,69Zm6.81,0a1,1,0,1,0,1,1A.95.95,0,0,0,631.81,69Zm0-12.18V69m0-14.07a.95.95,0,1,0,1,.95A1,1,0,0,0,631.81,54.88Zm-6.81,0a.95.95,0,1,0,1,.95A1,1,0,0,0,625,54.88Zm0,1.92V69m6.29-12.23-5.85,12.34m0-12.42,6,12.42"/><path id="_604932448" data-name=" 604932448" class="cls-16" d="M637.85,53.6h-4.32a.44.44,0,0,0-.32.13.45.45,0,0,0-.14.32v0H622.89V72h10.23a.42.42,0,0,0,.09.14h0a.44.44,0,0,0,.32.13h4.32a.44.44,0,0,0,.45-.45V70.09a.46.46,0,0,0-.13-.32h0a.56.56,0,0,0-.24-.13V67.05a.47.47,0,0,0,.24-.13.44.44,0,0,0,.13-.32V64.93a.44.44,0,0,0-.13-.32h0a.47.47,0,0,0-.24-.13V61.72a.47.47,0,0,0,.24-.13.44.44,0,0,0,.13-.32V59.6a.44.44,0,0,0-.13-.32h0a.47.47,0,0,0-.24-.13v-3a.55.55,0,0,0,.24-.12.49.49,0,0,0,.13-.33V54.05a.44.44,0,0,0-.13-.32h0a.48.48,0,0,0-.32-.13Zm-4.32.29h4.32a.16.16,0,0,1,.11,0,.21.21,0,0,1,0,.11v1.67a.15.15,0,0,1-.15.16h-4.32a.21.21,0,0,1-.11,0h0a.13.13,0,0,1,0-.11V54.05a.17.17,0,0,1,.16-.16Zm-.46.5v1.33a.5.5,0,0,0,.14.33h0a.5.5,0,0,0,.24.12v3a.41.41,0,0,0-.24.13.45.45,0,0,0-.14.32v1.67a.45.45,0,0,0,.14.32h0a.44.44,0,0,0,.24.13v2.76a.41.41,0,0,0-.24.13.45.45,0,0,0-.14.32V66.6a.45.45,0,0,0,.14.32h0a.44.44,0,0,0,.24.13v2.59a.48.48,0,0,0-.38.45v1.57h-9.88V54.39Zm.46,5h4.32a.15.15,0,0,1,.15.16v1.67a.21.21,0,0,1,0,.11.16.16,0,0,1-.11,0h-4.32a.16.16,0,0,1-.11,0h0a.16.16,0,0,1,0-.11V59.6a.13.13,0,0,1,0-.11.16.16,0,0,1,.11-.05Zm0,5.33h4.32a.16.16,0,0,1,.11,0,.18.18,0,0,1,0,.11V66.6a.21.21,0,0,1,0,.11l0,0h-4.48v0l0,0h0a.14.14,0,0,1,0-.11V64.93a.14.14,0,0,1,0-.11.16.16,0,0,1,.11,0Zm.22,2.29h3.88v2.57h-3.88Zm-.22,2.88h4.32a.15.15,0,0,1,.11,0,.21.21,0,0,1,0,.11v1.68a.14.14,0,0,1-.15.15h-4.32a.21.21,0,0,1-.11,0h0a.16.16,0,0,1,0-.11V70.09a.16.16,0,0,1,0-.11A.15.15,0,0,1,633.53,69.94Zm.22-8.09h3.88v2.62h-3.88Zm0-5.63h3.88v2.92h-3.88Zm-8.88,12.61a1.12,1.12,0,0,0-.65.32h0A1.1,1.1,0,0,0,625,71a1.15,1.15,0,0,0,.78-.32h0a1.11,1.11,0,0,0,0-1.56h0l-.14-.12,2.76-5.83L631.2,69l-.17.14h0a1.1,1.1,0,0,0,.78,1.88,1.15,1.15,0,0,0,.78-.32h0a1.11,1.11,0,0,0,0-1.56h0a1.19,1.19,0,0,0-.61-.31V56.92a1.19,1.19,0,0,0,.61-.31h0a1.11,1.11,0,0,0,0-1.56h0a1.11,1.11,0,0,0-1.56,0h0a1.11,1.11,0,0,0,0,1.56l.12.1L628.4,62.5l-2.77-5.77.15-.12h0a1.11,1.11,0,0,0,0-1.56h0a1.11,1.11,0,0,0-1.56,0h0a1.1,1.1,0,0,0,.65,1.87V68.84Zm-.44.53a.82.82,0,0,1,1.14,0h0a.84.84,0,0,1,.23.57.79.79,0,0,1-.23.56h0a.84.84,0,0,1-.57.23.8.8,0,0,1-.57-.24.79.79,0,0,1-.23-.56.84.84,0,0,1,.23-.57Zm.94-.47-.2,0V56.92l.19-.05,2.88,6-2.87,6Zm6.31-.06-.21,0-2.9-6,2.84-6,.27.06V68.83Zm-.44.53a.82.82,0,0,1,1.14,0h0a.84.84,0,0,1,.23.57.79.79,0,0,1-.23.56h0a.84.84,0,0,1-.57.23.8.8,0,0,1-.57-.24.79.79,0,0,1-.23-.56.84.84,0,0,1,.23-.57Zm0-14.1a.82.82,0,0,1,1.14,0h0a.82.82,0,0,1,0,1.14h0a.81.81,0,0,1-1.14-1.14Zm-6.81,0a.82.82,0,0,1,1.14,0h0a.82.82,0,0,1,0,1.14h0a.81.81,0,0,1-1.14-1.14Z"/><polygon id="_604932616" data-name=" 604932616" class="cls-16" points="622.75 70.82 622.75 53.35 622.54 53.35 622.54 70.82 622.75 70.82"/><polygon id="_604932856" data-name=" 604932856" class="cls-16" points="622.39 70.02 622.39 52.73 622.18 52.73 622.18 70.02 622.39 70.02"/><line id="_604932928" data-name=" 604932928" class="cls-1" x1="621.84" y1="69.84" x2="621.93" y2="52.1"/><polygon id="_604933216" data-name=" 604933216" class="cls-16" points="621.95 69.84 622.04 52.1 621.83 52.1 621.74 69.84 621.95 69.84"/><polygon id="_604933384" data-name=" 604933384" class="cls-16" points="621.68 69.22 621.68 51.66 621.47 51.66 621.47 69.22 621.68 69.22"/><polygon id="_604933624" data-name=" 604933624" class="cls-16" points="621.32 69.31 621.32 51.12 621.11 51.12 621.11 69.31 621.32 69.31"/><polygon id="_604933720" data-name=" 604933720" class="cls-17" points="623.86 56.58 623.04 56.58 623.04 58.74 623.86 58.74 623.86 56.58"/><path id="_604933792" data-name=" 604933792" class="cls-16" d="M623.86,56.43h-1v2.46H624V56.43Zm-.67.3h.52v1.86h-.52Z"/><polygon id="_604934080" data-name=" 604934080" class="cls-17" points="623.86 66.82 623.04 66.82 623.04 68.98 623.86 68.98 623.86 66.82"/><path id="_604934176" data-name=" 604934176" class="cls-16" d="M623.86,66.67h-1v2.46H624V66.67Zm-.67.3h.52v1.86h-.52Z"/><polygon id="_604934248" data-name=" 604934248" class="cls-17" points="623.13 56.58 619.2 52.79 619.2 54.97 623.13 58.77 623.13 56.58"/><path id="_604934344" data-name=" 604934344" class="cls-16" d="M623.23,56.47l-3.92-3.79-.26-.25V55l.05,0,3.92,3.8.26.24v-2.6Zm-3.88-3.33,3.63,3.5v1.78l-3.63-3.51V53.14Z"/><path id="_604934488" data-name=" 604934488" class="cls-17" d="M621,55.22c-.15,0-.28.2-.28.44s.13.44.28.44.28-.2.28-.44S621.16,55.22,621,55.22Z"/><path id="_604934584" data-name=" 604934584" class="cls-16" d="M621,55.07a.39.39,0,0,0-.32.2h0a.75.75,0,0,0,0,.78.36.36,0,0,0,.65,0,.81.81,0,0,0,0-.78.41.41,0,0,0-.33-.2Zm-.07.36h0s.05-.06.07-.06,0,0,.08.06a.52.52,0,0,1,0,.23.49.49,0,0,1,0,.23S621,56,621,56a.1.1,0,0,1-.07-.06.48.48,0,0,1-.06-.23.52.52,0,0,1,.06-.23Z"/><polygon id="_604934656" data-name=" 604934656" class="cls-17" points="623.01 66.69 619.09 62.9 619.09 65.09 623.01 68.88 623.01 66.69"/><path id="_604934944" data-name=" 604934944" class="cls-16" d="M623.12,66.59l-3.93-3.8-.25-.24v2.6l0,0,3.92,3.8.25.25V66.63l0,0Zm-3.88-3.34,3.62,3.51v1.77L619.24,65Z"/><path id="_604935040" data-name=" 604935040" class="cls-17" d="M620.89,65.33c-.15,0-.28.2-.28.44s.13.44.28.44.28-.19.28-.44S621.05,65.33,620.89,65.33Z"/><path id="_604935112" data-name=" 604935112" class="cls-16" d="M620.89,65.18a.39.39,0,0,0-.32.2.75.75,0,0,0-.11.4.74.74,0,0,0,.11.39h0a.38.38,0,0,0,.32.19.37.37,0,0,0,.32-.19.71.71,0,0,0,.11-.39.82.82,0,0,0-.1-.4.41.41,0,0,0-.33-.2Zm-.07.36s0-.06.07-.06.05,0,.07.06a.43.43,0,0,1,.06.24A.36.36,0,0,1,621,66a.07.07,0,0,1-.14,0h0a.36.36,0,0,1-.06-.22.43.43,0,0,1,.06-.24Z"/><polygon id="_604935352" data-name=" 604935352" class="cls-16" points="635.57 50.93 621.31 50.93 621.31 51.14 635.57 51.14 635.57 50.93"/><polygon id="_604935520" data-name=" 604935520" class="cls-16" points="636.46 51.38 621.93 51.38 621.93 51.59 636.46 51.59 636.46 51.38"/><polygon id="_604935904" data-name=" 604935904" class="cls-16" points="636.91 52 622.29 52 622.29 52.21 636.91 52.21 636.91 52"/><polygon id="_604936072" data-name=" 604936072" class="cls-16" points="637.09 52.62 622.38 52.62 622.38 52.83 637.09 52.83 637.09 52.62"/><polygon id="_604936288" data-name=" 604936288" class="cls-16" points="637.09 53.16 622.64 53.16 622.64 53.37 637.09 53.37 637.09 53.16"/></g></g></svg>